<svg height="440pt" viewBox="0 -108 440.499 440" width="440pt" xmlns="http://www.w3.org/2000/svg"><path d="m296.890625 151.402344 37.355469-9.699219v-117.085937c.070312-8.007813-3.832032-15.53125-10.425782-20.082032-6.589843-4.550781-15.007812-5.535156-22.472656-2.632812l-34.316406 13.316406c-30.078125 11.699219-63.445312 11.699219-93.523438 0l-34.292968-13.316406c-7.472656-2.914063-15.902344-1.933594-22.507813 2.617187-6.601562 4.550781-10.519531 12.078125-10.460937 20.097657v117.089843l37.292968 9.699219c50.292969 12.988281 103.058594 12.984375 153.351563-.003906zm0 0"/><path d="m61.296875 205.9375c42.367187 11.492188 98.816406 17.824219 158.949219 17.824219 60.136718 0 116.585937-6.332031 158.953125-17.824219 29.699219-8.054688 61.300781-21.96875 61.300781-36.859375 0-13.410156-28.25-31.847656-92.25-43.808594v21.855469c.0625 3.164062-2.042969 5.960938-5.097656 6.777344l-42.601563 11.054687c-26.21875 6.769531-53.1875 10.191407-80.265625 10.1875-27.070312.003907-54.035156-3.417969-80.246094-10.1875l-42.679687-11.054687c-3.058594-.8125-5.171875-3.609375-5.113281-6.777344v-21.851562c-64 11.957031-92.246094 30.382812-92.246094 43.804687 0 14.890625 31.597656 28.804687 61.296875 36.859375zm0 0"/></svg>